<svg xmlns="http://www.w3.org/2000/svg" version="1.1" xmlns:xlink="http://www.w3.org/1999/xlink" xmlns:svgjs="http://svgjs.com/svgjs" width="1440" height="560" preserveAspectRatio="none" viewBox="0 0 1440 560"><g mask="url(&quot;#SvgjsMask1006&quot;)" fill="none"><path d="M522.22 76.06L540.83 76.06L540.83 94.67L522.22 94.67z" fill="rgba(223, 241, 34, 1)"></path><path d="M130.79 279.15a29.43 29.43 0 1 0 54.58 22.02z" stroke="rgba(53, 121, 231, 1)"></path><path d="M106.48 127.23L110.9 127.23L110.9 131.65L106.48 131.65z" fill="#037b0b"></path><path d="M1179.55 451.08L1190.23 451.08L1190.23 501.73L1179.55 501.73z" stroke="rgba(53, 121, 231, 1)"></path><path d="M110.87 546.05L155.17 546.05L155.17 590.35L110.87 590.35z" stroke="rgba(53, 121, 231, 1)"></path><path d="M587.81 7.65L590.6 7.65L590.6 10.44L587.81 10.44z" fill="rgba(53, 121, 231, 1)"></path><path d="M269.04 86.5L307.72 86.5L307.72 125.18L269.04 125.18z" fill="rgba(223, 241, 34, 1)"></path><path d="M200.25 433.55L231.86 433.55L231.86 465.16L200.25 465.16z" stroke="rgba(223, 241, 34, 1)"></path><path d="M664.74 151.11a25.69 25.69 0 1 0 44.15-26.28z" stroke="#037b0b"></path><path d="M686.96 483.9L735.74 483.9L735.74 533.23L686.96 533.23z" stroke="#037b0b"></path><path d="M37.58 501.83 a54.09 54.09 0 1 0 108.18 0 a54.09 54.09 0 1 0 -108.18 0z" stroke="#037b0b"></path><path d="M764.59 45.1 a42.45 42.45 0 1 0 84.9 0 a42.45 42.45 0 1 0 -84.9 0z" fill="#037b0b"></path><path d="M1257.82 158.06L1308.1 158.06L1308.1 196.74L1257.82 196.74z" stroke="rgba(53, 121, 231, 1)"></path><path d="M28.17 115.2 a7.38 7.38 0 1 0 14.76 0 a7.38 7.38 0 1 0 -14.76 0z" stroke="rgba(223, 241, 34, 1)"></path><path d="M1258.14 91.32L1313.16 91.32L1313.16 105.31L1258.14 105.31z" fill="rgba(223, 241, 34, 1)"></path><path d="M559.1 487.88L588.68 487.88L588.68 523.86L559.1 523.86z" stroke="rgba(223, 241, 34, 1)"></path><path d="M1406.47 359.73L1445.91 359.73L1445.91 382.22L1406.47 382.22z" fill="#037b0b"></path><path d="M218.28 171.46L254.95 171.46L254.95 208.13L218.28 208.13z" fill="#037b0b"></path><path d="M579.17 204.84L623.65 204.84L623.65 249.32L579.17 249.32z" fill="rgba(53, 121, 231, 1)"></path><path d="M133.33 407.34L156.13 407.34L156.13 441.7L133.33 441.7z" fill="rgba(53, 121, 231, 1)"></path><path d="M754.48 532.82L780.09 532.82L780.09 562.58L754.48 562.58z" stroke="#037b0b"></path><path d="M1219.29 131.92 a0.25 0.25 0 1 0 0.5 0 a0.25 0.25 0 1 0 -0.5 0z" stroke="#037b0b"></path><path d="M421.59 54.44L434.1 54.44L434.1 66.95L421.59 66.95z" fill="rgba(223, 241, 34, 1)"></path><path d="M108.18 474.95a20.97 20.97 0 1 0-30.67 28.61z" fill="rgba(223, 241, 34, 1)"></path><path d="M1156.29 280.24 a14.47 14.47 0 1 0 28.94 0 a14.47 14.47 0 1 0 -28.94 0z" stroke="#037b0b"></path><path d="M1303.2 405.69 a11.98 11.98 0 1 0 23.96 0 a11.98 11.98 0 1 0 -23.96 0z" fill="rgba(223, 241, 34, 1)"></path><path d="M255.89 179.03a30.19 30.19 0 1 0-5.85 60.1z" stroke="rgba(223, 241, 34, 1)"></path><path d="M1330.8 405.01 a47.47 47.47 0 1 0 94.94 0 a47.47 47.47 0 1 0 -94.94 0z" stroke="rgba(223, 241, 34, 1)"></path><path d="M936.33 469.68L954.95 469.68L954.95 488.3L936.33 488.3z" fill="rgba(223, 241, 34, 1)"></path><path d="M475.16 108.12 a26.74 26.74 0 1 0 53.48 0 a26.74 26.74 0 1 0 -53.48 0z" fill="#037b0b"></path><path d="M1330.42 13.92L1352.86 13.92L1352.86 64.66L1330.42 64.66z" fill="rgba(53, 121, 231, 1)"></path><path d="M114.19 293.69 a19.86 19.86 0 1 0 39.72 0 a19.86 19.86 0 1 0 -39.72 0z" fill="rgba(223, 241, 34, 1)"></path><path d="M407.58 431.74 a31.96 31.96 0 1 0 63.92 0 a31.96 31.96 0 1 0 -63.92 0z" stroke="#037b0b"></path></g><defs><mask id="SvgjsMask1006"><rect width="1440" height="560" fill="#ffffff"></rect></mask></defs></svg>